<?xml version="1.0" ?><svg data-name="Layer 1" id="Layer_1" viewBox="0 0 32 32" xmlns="http://www.w3.org/2000/svg"><defs><style>.cls-1{fill:#f9dcc4;}.cls-2{fill:#fff2e9;}.cls-3{fill:#edbe9d;}.cls-4{fill:#577590;}.cls-5{fill:#ef6351;}.cls-6{fill:#f8edeb;}.cls-7{fill:#db5252;}.cls-8{fill:#ef877f;}</style></defs><rect class="cls-1" height="28" rx="2.5" width="20" x="6" y="2"/><path class="cls-2" d="M15,2h7a1,1,0,0,1,0,2H15a1,1,0,0,1,0-2Z"/><path class="cls-3" d="M24,20v4a4,4,0,0,1-4,4H11a1,1,0,0,0-1,1h0a1,1,0,0,0,1,1H23.5A2.5,2.5,0,0,0,26,27.5V20a1,1,0,0,0-1-1h0A1,1,0,0,0,24,20Z"/><path class="cls-4" d="M21.5,29a.5.5,0,0,1-.5-.5v-2a.5.5,0,0,1,1,0v2A.5.5,0,0,1,21.5,29Zm0-4a.5.5,0,0,1-.5-.5v-2a.5.5,0,0,1,1,0v2A.5.5,0,0,1,21.5,25Zm0-4a.5.5,0,0,1-.5-.5v-2a.5.5,0,0,1,1,0v2A.5.5,0,0,1,21.5,21Zm0-4a.5.5,0,0,1-.5-.5v-2a.5.5,0,0,1,1,0v2A.5.5,0,0,1,21.5,17Zm0-4a.5.5,0,0,1-.5-.5v-2a.5.5,0,0,1,1,0v2A.5.5,0,0,1,21.5,13Zm0-4a.5.5,0,0,1-.5-.5v-2a.5.5,0,0,1,1,0v2A.5.5,0,0,1,21.5,9Zm0-4a.5.5,0,0,1-.5-.5v-2a.5.5,0,0,1,1,0v2A.5.5,0,0,1,21.5,5Z"/><path class="cls-4" d="M17.5,16a.5.5,0,0,1-.5-.5V13a3,3,0,0,0-6,0v2.5a.5.5,0,0,1-1,0V13a4,4,0,0,1,8,0v2.5A.5.5,0,0,1,17.5,16Z"/><path class="cls-2" d="M6,13.5v-2a1,1,0,0,1,2,0v2a1,1,0,0,1-2,0Z"/><path class="cls-2" d="M6,24.5v-8a1,1,0,0,1,2,0v8a1,1,0,0,1-2,0Z"/><rect class="cls-5" height="7" rx="1.5" width="10" x="9" y="15"/><circle class="cls-6" cx="14" cy="18" r="1"/><path class="cls-7" d="M17,22H15a1,1,0,0,1,0-2h2a1,1,0,0,1,0,2Z"/><path class="cls-8" d="M11,15h1a1,1,0,0,1,0,2H11a1,1,0,0,1,0-2Z"/></svg>